<svg width="16" height="16" viewBox="0 0 16 16" fill="none" xmlns="http://www.w3.org/2000/svg">
<path d="M8.60037 2.03073C8.60037 2.03073 10.4004 4.4889 10.4004 8.22223C10.4004 11.9556 8.60037 14.4137 8.60037 14.4137M7.40001 14.4137C7.40001 14.4137 5.60001 11.9556 5.60001 8.22223C5.60001 4.4889 7.40001 2.03073 7.40001 2.03073M2.3782 10.4H13.6227M2.3782 6.04479H13.6227M8.00001 14.4444C4.6863 14.4444 2 11.6587 2 8.22222C2 4.78578 4.6863 2 8.00001 2C11.3137 2 14 4.78578 14 8.22222C14 11.6587 11.3137 14.4444 8.00001 14.4444Z" stroke="black" stroke-width="0.875" stroke-linecap="round" stroke-linejoin="round"/>
</svg>
