<svg width="139" height="96" viewBox="0 0 139 96" fill="none" xmlns="http://www.w3.org/2000/svg">
<path d="M44.9062 40L44.9062 17.6L56.8743 17.6C59.9676 17.6 62.2503 18.1546 63.7223 19.264C65.1943 20.352 65.9303 21.7493 65.9303 23.456C65.9303 24.5866 65.6103 25.6 64.9703 26.496C64.3516 27.3706 63.4449 28.064 62.2503 28.576C61.0556 29.088 59.5836 29.344 57.8343 29.344L58.4743 27.616C60.2236 27.616 61.7276 27.8613 62.9863 28.352C64.2663 28.8426 65.2476 29.5573 65.9303 30.496C66.6343 31.4133 66.9863 32.5226 66.9863 33.824C66.9863 35.7653 66.1756 37.28 64.5543 38.368C62.9543 39.456 60.6076 40 57.5143 40L44.9062 40ZM52.3302 34.72L56.8743 34.72C57.7063 34.72 58.3249 34.5706 58.7303 34.272C59.1569 33.9733 59.3702 33.536 59.3702 32.96C59.3702 32.384 59.1569 31.9466 58.7303 31.648C58.3249 31.3493 57.7063 31.2 56.8743 31.2L51.8182 31.2L51.8182 26.208L55.8503 26.208C56.7036 26.208 57.3223 26.0693 57.7063 25.792C58.1116 25.4933 58.3142 25.0773 58.3142 24.544C58.3142 23.9893 58.1116 23.5733 57.7063 23.296C57.3223 23.0186 56.7036 22.88 55.8503 22.88L52.3302 22.88L52.3302 34.72Z" fill="#5AB0BB"/>
<path d="M81.6562 40.32C79.5229 40.32 77.6562 39.9253 76.0562 39.136C74.4776 38.3466 73.2509 37.2693 72.3762 35.904C71.5016 34.5173 71.0643 32.96 71.0643 31.232C71.0643 29.4613 71.4909 27.8933 72.3442 26.528C73.2189 25.1626 74.4029 24.096 75.8962 23.328C77.4109 22.56 79.1069 22.176 80.9842 22.176C82.7122 22.176 84.3016 22.5173 85.7523 23.2C87.2243 23.8826 88.3976 24.896 89.2722 26.24C90.1682 27.584 90.6162 29.248 90.6162 31.232C90.6162 31.488 90.6056 31.776 90.5843 32.096C90.5629 32.3946 90.5416 32.672 90.5202 32.928L77.0482 32.928V29.44L86.6802 29.44L83.9603 30.368C83.9603 29.6853 83.8322 29.1093 83.5762 28.64C83.3416 28.1493 83.0109 27.776 82.5842 27.52C82.1576 27.2426 81.6456 27.104 81.0482 27.104C80.4509 27.104 79.9282 27.2426 79.4802 27.52C79.0536 27.776 78.7229 28.1493 78.4883 28.64C78.2536 29.1093 78.1362 29.6853 78.1362 30.368V31.456C78.1362 32.2026 78.2856 32.8426 78.5842 33.376C78.8829 33.9093 79.3096 34.3146 79.8643 34.592C80.4189 34.848 81.0909 34.976 81.8802 34.976C82.6909 34.976 83.3522 34.8693 83.8643 34.656C84.3976 34.4426 84.9522 34.1226 85.5282 33.696L89.3042 37.504C88.4509 38.4213 87.3949 39.1253 86.1362 39.616C84.8989 40.0853 83.4056 40.32 81.6562 40.32Z" fill="#5AB0BB"/>
<path d="M105.122 40.32C102.989 40.32 101.122 39.9253 99.5225 39.136C97.9438 38.3466 96.7172 37.2693 95.8425 35.904C94.9678 34.5173 94.5305 32.96 94.5305 31.232C94.5305 29.4613 94.9572 27.8933 95.8105 26.528C96.6852 25.1626 97.8692 24.096 99.3625 23.328C100.877 22.56 102.573 22.176 104.451 22.176C106.179 22.176 107.768 22.5173 109.218 23.2C110.69 23.8826 111.864 24.896 112.739 26.24C113.635 27.584 114.082 29.248 114.082 31.232C114.082 31.488 114.072 31.776 114.05 32.096C114.029 32.3946 114.008 32.672 113.986 32.928L100.514 32.928V29.44L110.146 29.44L107.426 30.368C107.426 29.6853 107.298 29.1093 107.042 28.64C106.808 28.1493 106.477 27.776 106.05 27.52C105.624 27.2426 105.112 27.104 104.514 27.104C103.917 27.104 103.395 27.2426 102.946 27.52C102.52 27.776 102.189 28.1493 101.954 28.64C101.72 29.1093 101.602 29.6853 101.602 30.368V31.456C101.602 32.2026 101.752 32.8426 102.05 33.376C102.349 33.9093 102.776 34.3146 103.33 34.592C103.885 34.848 104.557 34.976 105.346 34.976C106.157 34.976 106.818 34.8693 107.33 34.656C107.864 34.4426 108.418 34.1226 108.994 33.696L112.771 37.504C111.917 38.4213 110.861 39.1253 109.603 39.616C108.365 40.0853 106.872 40.32 105.122 40.32Z" fill="#5AB0BB"/>
<path d="M118.925 40L118.925 22.496L125.805 22.496V27.776L124.685 26.272C125.218 24.9066 126.071 23.8826 127.245 23.2C128.418 22.5173 129.826 22.176 131.469 22.176V28.576C131.149 28.5333 130.861 28.5013 130.605 28.48C130.37 28.4586 130.125 28.448 129.869 28.448C128.781 28.448 127.885 28.736 127.181 29.312C126.498 29.8666 126.157 30.8373 126.157 32.224L126.157 40L118.925 40Z" fill="#5AB0BB"/>
<path d="M53.383 79.512C51.5057 79.512 49.6924 79.2986 47.943 78.872C46.1937 78.4453 44.7537 77.8906 43.623 77.208L46.055 71.704C47.1217 72.3226 48.3057 72.824 49.607 73.208C50.9297 73.5707 52.2097 73.752 53.447 73.752C54.1724 73.752 54.7377 73.7093 55.143 73.624C55.5697 73.5173 55.879 73.3787 56.071 73.208C56.263 73.016 56.359 72.792 56.359 72.536C56.359 72.1306 56.135 71.8106 55.687 71.576C55.239 71.3413 54.6417 71.1493 53.895 71C53.1697 70.8293 52.3697 70.6586 51.495 70.488C50.6204 70.296 49.735 70.0506 48.839 69.752C47.9644 69.4533 47.1537 69.0587 46.407 68.568C45.6817 68.0773 45.095 67.4373 44.647 66.648C44.199 65.8373 43.975 64.8346 43.975 63.64C43.975 62.2533 44.359 60.9946 45.127 59.864C45.9164 58.712 47.079 57.7946 48.615 57.112C50.1724 56.4293 52.103 56.088 54.407 56.088C55.9217 56.088 57.415 56.248 58.887 56.568C60.359 56.888 61.6817 57.3786 62.855 58.04L60.583 63.512C59.4737 62.9573 58.3964 62.5413 57.351 62.264C56.327 61.9866 55.3244 61.848 54.343 61.848C53.6177 61.848 53.0417 61.912 52.615 62.04C52.1884 62.168 51.879 62.3386 51.687 62.552C51.5164 62.7653 51.431 63 51.431 63.256C51.431 63.64 51.655 63.9493 52.103 64.184C52.551 64.3973 53.1377 64.5787 53.863 64.728C54.6097 64.8773 55.4204 65.0373 56.295 65.208C57.191 65.3786 58.0764 65.6133 58.951 65.912C59.8257 66.2106 60.6257 66.6053 61.351 67.096C62.0977 67.5866 62.695 68.2266 63.143 69.016C63.591 69.8053 63.815 70.7866 63.815 71.96C63.815 73.3253 63.4204 74.584 62.631 75.736C61.863 76.8666 60.711 77.784 59.175 78.488C57.639 79.1707 55.7084 79.512 53.383 79.512Z" fill="black"/>
<path d="M80.5583 61.176C81.9023 61.176 83.1183 61.4533 84.2063 62.008C85.2943 62.5413 86.1476 63.384 86.7663 64.536C87.4063 65.688 87.7263 67.1813 87.7263 69.016L87.7263 79L80.4943 79L80.4943 70.264C80.4943 69.176 80.3023 68.408 79.9183 67.96C79.5343 67.4906 79.0116 67.256 78.3503 67.256C77.8596 67.256 77.401 67.3733 76.9743 67.608C76.569 67.8213 76.2383 68.184 75.9823 68.696C75.7476 69.208 75.6303 69.9013 75.6303 70.776L75.6303 79L68.3983 79L68.3983 55.256L75.6303 55.256L75.6303 66.616L73.9023 65.144C74.585 63.8213 75.5023 62.8293 76.6543 62.168C77.8276 61.5066 79.129 61.176 80.5583 61.176Z" fill="black"/>
<path d="M102.988 79.32C101.004 79.32 99.2435 78.936 97.7075 78.168C96.1929 77.3786 94.9982 76.3013 94.1235 74.936C93.2489 73.5707 92.8115 72.0026 92.8115 70.232C92.8115 68.4613 93.2489 66.8933 94.1235 65.528C94.9982 64.1627 96.1929 63.096 97.7075 62.328C99.2435 61.56 101.004 61.176 102.988 61.176C104.972 61.176 106.732 61.56 108.268 62.328C109.804 63.096 110.998 64.1627 111.852 65.528C112.726 66.8933 113.164 68.4613 113.164 70.232C113.164 72.0026 112.726 73.5707 111.852 74.936C110.998 76.3013 109.804 77.3786 108.268 78.168C106.732 78.936 104.972 79.32 102.988 79.32ZM102.988 73.688C103.521 73.688 104.001 73.56 104.428 73.304C104.854 73.048 105.196 72.664 105.452 72.152C105.708 71.6187 105.836 70.9786 105.836 70.232C105.836 69.464 105.708 68.8346 105.452 68.344C105.196 67.832 104.854 67.448 104.428 67.192C104.001 66.936 103.521 66.808 102.988 66.808C102.454 66.808 101.974 66.936 101.548 67.192C101.121 67.448 100.78 67.832 100.524 68.344C100.268 68.8346 100.14 69.464 100.14 70.232C100.14 70.9786 100.268 71.6187 100.524 72.152C100.78 72.664 101.121 73.048 101.548 73.304C101.974 73.56 102.454 73.688 102.988 73.688Z" fill="black"/>
<path d="M129.667 79.32C128.152 79.32 126.894 79 125.891 78.36C124.91 77.6987 124.184 76.7066 123.715 75.384C123.246 74.04 123.011 72.3333 123.011 70.264C123.011 68.152 123.224 66.4346 123.651 65.112C124.099 63.768 124.814 62.776 125.795 62.136C126.776 61.496 128.067 61.176 129.667 61.176C131.203 61.176 132.611 61.5493 133.891 62.296C135.171 63.0213 136.195 64.0666 136.963 65.432C137.731 66.776 138.115 68.3866 138.115 70.264C138.115 72.1413 137.731 73.7626 136.963 75.128C136.195 76.472 135.171 77.5066 133.891 78.232C132.611 78.9573 131.203 79.32 129.667 79.32ZM117.987 85.208L117.987 61.496L124.867 61.496V63.864L124.899 70.264L125.219 76.664L125.219 85.208L117.987 85.208ZM127.939 73.688C128.472 73.688 128.952 73.56 129.379 73.304C129.806 73.048 130.147 72.664 130.403 72.152C130.659 71.64 130.787 71.0106 130.787 70.264C130.787 69.496 130.659 68.856 130.403 68.344C130.147 67.832 129.806 67.448 129.379 67.192C128.952 66.936 128.472 66.808 127.939 66.808C127.406 66.808 126.926 66.936 126.499 67.192C126.072 67.448 125.731 67.832 125.475 68.344C125.219 68.856 125.091 69.496 125.091 70.264C125.091 71.0106 125.219 71.64 125.475 72.152C125.731 72.664 126.072 73.048 126.499 73.304C126.926 73.56 127.406 73.688 127.939 73.688Z" fill="black"/>
<rect x="6.2334" y="1.87012" width="16.8312" height="8.72727" fill="black"/>
<rect x="3.11719" y="10.5974" width="22.4416" height="8.72727" fill="black"/>
<rect x="3.11719" y="19.3246" width="22.4416" height="8.72727" fill="black"/>
<rect x="1.24707" y="28.0519" width="26.1818" height="8.72727" fill="black"/>
<rect x="1.24707" y="92.2598" width="26.1818" height="3.74026" fill="black"/>
<rect y="36.7792" width="28.6753" height="55.4805" fill="black"/>
<rect x="6.2334" width="16.8312" height="1.87013" fill="#5AB0BB"/>
<rect x="3.11719" y="39.8961" width="7.48052" height="46.1299" fill="#5AB0BB"/>
<rect x="14.3379" y="39.8961" width="11.2208" height="46.1299" fill="#5AB0BB"/>
</svg>
