<svg width="24" height="24" viewBox="0 0 24 24" fill="none" xmlns="http://www.w3.org/2000/svg">
<path fill-rule="evenodd" clip-rule="evenodd" d="M6.53033 7.46978L6 6.93945L4.93934 8.00011L5.46967 8.53044L8.18934 11.2501H1L1 12.7501H8.18934L5.46967 15.4698L4.93934 16.0001L6 17.0608L6.53033 16.5304L10.5303 12.5304L11.0607 12.0001L10.5303 11.4698L6.53033 7.46978ZM15.8107 11.2501L23 11.2501L23 12.7501L15.8107 12.7501L18.5303 15.4698L19.0607 16.0001L18 17.0608L17.4697 16.5304L13.4697 12.5304L12.9393 12.0001L13.4697 11.4698L17.4697 7.46978L18 6.93945L19.0607 8.00011L18.5303 8.53044L15.8107 11.2501Z" fill="black"/>
</svg>
