<svg width="24" height="24" viewBox="0 0 24 24" fill="none" xmlns="http://www.w3.org/2000/svg">
<path fill-rule="evenodd" clip-rule="evenodd" d="M18 2.75C16.7574 2.75 15.75 3.75736 15.75 5C15.75 6.24264 16.7574 7.25 18 7.25C19.2426 7.25 20.25 6.24264 20.25 5C20.25 3.75736 19.2426 2.75 18 2.75ZM14.25 5C14.25 2.92893 15.9289 1.25 18 1.25C20.0711 1.25 21.75 2.92893 21.75 5C21.75 7.07107 20.0711 8.75 18 8.75C16.8997 8.75 15.9102 8.27616 15.2242 7.52142L9.54289 10.7679C9.67708 11.1538 9.75 11.5684 9.75 12C9.75 12.4316 9.67708 12.8462 9.54289 13.2321L15.2242 16.4786C15.9102 15.7238 16.8997 15.25 18 15.25C20.0711 15.25 21.75 16.9289 21.75 19C21.75 21.0711 20.0711 22.75 18 22.75C15.9289 22.75 14.25 21.0711 14.25 19C14.25 18.5684 14.3229 18.1538 14.4571 17.7679L8.77581 14.5214C8.08983 15.2762 7.10025 15.75 6 15.75C3.92893 15.75 2.25 14.0711 2.25 12C2.25 9.92893 3.92893 8.25 6 8.25C7.10025 8.25 8.08983 8.72384 8.77581 9.47858L14.4571 6.23212C14.3229 5.84621 14.25 5.43162 14.25 5ZM18 16.75C16.7574 16.75 15.75 17.7574 15.75 19C15.75 20.2426 16.7574 21.25 18 21.25C19.2426 21.25 20.25 20.2426 20.25 19C20.25 17.7574 19.2426 16.75 18 16.75ZM3.75 12C3.75 10.7574 4.75736 9.75 6 9.75C7.24264 9.75 8.25 10.7574 8.25 12C8.25 13.2426 7.24264 14.25 6 14.25C4.75736 14.25 3.75 13.2426 3.75 12Z" fill="black"/>
</svg>
